PathFileType	4	(X/Y/Z)	/Users/niels/Desktop/University/Third Semester/Perception and Action/Exam/Gymnastics Motion Tracking/Code for Gym Tracking/Analyzed Data/Webcam_Backflip/id1_4_trajectory_Sports2D/id1_4_trajectory_Sports2D_px_person00.trc
DataRate	CameraRate	NumFrames	NumMarkers	Units	OrigDataRate	OrigDataStartFrame	OrigNumFrames
29.71698113207547	29.71698113207547	11	22	m	29.71698113207547	26	106
Frame#	Time	Hip			RHip			RKnee			RAnkle			RBigToe			RSmallToe			RHeel			LHip			LKnee			LAnkle			LBigToe			LSmallToe			LHeel			Neck			Head			Nose			RShoulder			RElbow			RWrist			LShoulder			LElbow			LWrist		
		X1	Y1	Z1	X2	Y2	Z2	X3	Y3	Z3	X4	Y4	Z4	X5	Y5	Z5	X6	Y6	Z6	X7	Y7	Z7	X8	Y8	Z8	X9	Y9	Z9	X10	Y10	Z10	X11	Y11	Z11	X12	Y12	Z12	X13	Y13	Z13	X14	Y14	Z14	X15	Y15	Z15	X16	Y16	Z16	X17	Y17	Z17	X18	Y18	Z18	X19	Y19	Z19	X20	Y20	Z20	X21	Y21	Z21	X22	Y22	Z22
26	0.8749206349206348	0.5255679558066965	-0.8247174562833808	0.0	0.514449986832477	-0.8230694549740734	0.0	0.6135849803787478	-0.7434486477263816	0.0	0.7357043045830144	-0.7374089067382229	0.0	0.7750035462585737	-0.6962867898701426	0.0	0.7782333538200478	-0.7083258129849712	0.0	0.749621860044495	-0.7467849603722507	0.0	0.5384627186872434	-0.8300089102074352	0.0	0.6398113034869943	-0.7811668892030509	0.0	0.7532568364234348	-0.7690090370209525	0.0	0.783485708513678	-0.720223547468087	0.0	0.7878510308544706	-0.7208213844014044	0.0	0.7733396733501849	-0.7712923686785375	0.0	0.4699339398507388	-0.7161772289257882	0.0	0.5121648473071176	-0.6530897453732293	0.0	0.5126306387818178	-0.6918244076106641	0.0	0.44363212121659384	-0.7194939308221716	0.0	0.3879715474563312	-0.7829671263757132	0.0	0.40576912493570555	-0.8391748574922623	0.0	0.4774796955089149	-0.7263098188415613	0.0	0.4487689062116665	-0.7889031927659886	0.0	0.4671029777083939	-0.8291006281348847	0.0
27	0.9085714285714285	0.5128620347053316	-0.8390362312496751	0.0	0.49839738447164433	-0.8379909682622855	0.0	0.591047715616203	-0.7544630956410314	0.0	0.7114898872007334	-0.741173202839644	0.0	0.7501331317419868	-0.7012704950117423	0.0	0.7529786978327423	-0.7122232765894098	0.0	0.7234730703989671	-0.7485864436068859	0.0	0.528331573848829	-0.8445294987373795	0.0	0.6284968302029936	-0.796591224379684	0.0	0.7397416260848759	-0.7773018695895831	0.0	0.7654230527666501	-0.734135771542687	0.0	0.7719932025607903	-0.7356474908866517	0.0	0.7590805729703265	-0.7789061216856574	0.0	0.4441150944615556	-0.7382377710520652	0.0	0.47824138461005	-0.672756999131848	0.0	0.48378024937005437	-0.7101100148421812	0.0	0.4168178227760989	-0.7432806873215458	0.0	0.36552092690671284	-0.8079213578386937	0.0	0.3886916062687139	-0.8622611847515451	0.0	0.45507972864459845	-0.7489529997562452	0.0	0.43475701335442385	-0.8076670937813295	0.0	0.4563358618398583	-0.8418172736366157	0.0
28	0.9422222222222221	0.5018673012342891	-0.8515643781013006	0.0	0.48556557618932483	-0.8514768925077757	0.0	0.5689190471945627	-0.7625629325973258	0.0	0.6863852411667511	-0.7427251541193124	0.0	0.724256235525461	-0.7027589772846036	0.0	0.7268403855405866	-0.7126986062877159	0.0	0.6968586599703351	-0.7484222359103961	0.0	0.5196847636410823	-0.8563746309671418	0.0	0.6164556220434343	-0.8057898546066219	0.0	0.7251731798355179	-0.7805226654128155	0.0	0.7472583904081466	-0.7420507303079066	0.0	0.7556590712844619	-0.7457780861102806	0.0	0.7430464914150617	-0.781450204044788	0.0	0.4219943999967995	-0.7583342380338239	0.0	0.44784219784370627	-0.6914623432948375	0.0	0.4588205864212425	-0.7277927058710763	0.0	0.39512181812982083	-0.7649866763601885	0.0	0.35134350460884817	-0.8299840020489865	0.0	0.3820434603982988	-0.8803914125914093	0.0	0.4357238701817632	-0.7690574777745598	0.0	0.4269398620510366	-0.822731040285394	0.0	0.45384643389890605	-0.8488067786943302	0.0
29	0.9758730158730158	0.49362606028975414	-0.8599002358198182	0.0	0.4776058847828922	-0.8613850411168931	0.0	0.5493210412798315	-0.7667036249247052	0.0	0.6631276072128324	-0.7403455484882236	0.0	0.7000233864228679	-0.6987679520992433	0.0	0.7026494032005185	-0.7079944154176494	0.0	0.673250059230788	-0.7445248232951328	0.0	0.5125050782314953	-0.8634845998856427	0.0	0.6041005278865063	-0.8079687160158032	0.0	0.7102281772060827	-0.7771512223066176	0.0	0.7298138418941729	-0.7411747050567875	0.0	0.7392846796999489	-0.7483483219171562	0.0	0.7262541218495225	-0.7772551540396468	0.0	0.4038870138673047	-0.7745105226963424	0.0	0.4219529995830997	-0.7066503924324535	0.0	0.4383638576474329	-0.7423158907653529	0.0	0.3786574163953167	-0.7823298021849306	0.0	0.3443549278758023	-0.8462847438551674	0.0	0.38245883197257935	-0.8920386120498299	0.0	0.4194620151158755	-0.7843097345044516	0.0	0.4228232657246656	-0.831969172553202	0.0	0.45490754876490463	-0.849865680443365	0.0
30	1.0095238095238095	0.48872712025163795	-0.8621714912301236	0.0	0.4750217556987125	-0.8660942654186	0.0	0.5340033194628582	-0.7659762488039671	0.0	0.6438641179136496	-0.7328234199712794	0.0	0.6795718691328718	-0.6890230171232725	0.0	0.6825104979093042	-0.6978288757276842	0.0	0.6547739982924708	-0.7357250130436526	0.0	0.506720300501426	-0.8642427269246724	0.0	0.5922866385883209	-0.802946611069165	0.0	0.6957253866412759	-0.7664372201477945	0.0	0.7139250704893563	-0.7311998960980024	0.0	0.7235110017048794	-0.7422822164256102	0.0	0.7097430525996207	-0.7655420644400125	0.0	0.3899398911720375	-0.7855394489252092	0.0	0.40117760894364846	-0.7164964001726809	0.0	0.4226116537540772	-0.7516998202518318	0.0	0.36697736260380465	-0.794205551750696	0.0	0.34284327313065077	-0.8556971236542682	0.0	0.3866501564242115	-0.8968254595584645	0.0	0.4065938901630256	-0.7931371252318419	0.0	0.4208793848051429	-0.8341032124703657	0.0	0.4567105384724386	-0.845496623960517	0.0
31	1.043174603174603	0.4869847197549376	-0.8577244708403423	0.0	0.4767643148564678	-0.8647109575417613	0.0	0.5238683757511632	-0.7600342138135254	0.0	0.6296716429730045	-0.719656414239874	0.0	0.6636344748312443	-0.674307332522302	0.0	0.6669817241808025	-0.6827130187090874	0.0	0.6416455627593455	-0.721564642370576	0.0	0.5024054190373711	-0.858099726104356	0.0	0.5819358667448383	-0.791300589053185	0.0	0.6825552346974421	-0.7487007671105079	0.0	0.7002757791413335	-0.7139245227380564	0.0	0.7093294253772744	-0.7281683217887313	0.0	0.6945928731596865	-0.7467809407702908	0.0	0.3800883562859297	-0.7909714997989485	0.0	0.3855115908442738	-0.7203142394696238	0.0	0.4112330641701741	-0.7549907443936565	0.0	0.35931562986140214	-0.8004652008868102	0.0	0.3448519272577626	-0.8583745383305007	0.0	0.3922190222711682	-0.8951932372573657	0.0	0.39751527731163616	-0.7951594314590124	0.0	0.4203807300180589	-0.8292219418432227	0.0	0.4590472865673986	-0.8365728142524932	0.0
32	1.0768253968253967	0.48763491898638883	-0.8471599260099607	0.0	0.4809783615224176	-0.8572049512243269	0.0	0.5187055428778148	-0.7492849190497641	0.0	0.6203471634296266	-0.7011116435213235	0.0	0.6511492844413636	-0.6553541198405296	0.0	0.6549613528969775	-0.6630409549100015	0.0	0.6326568799492938	-0.7022920827791941	0.0	0.49968240594314844	-0.845635630078002	0.0	0.5738539914856639	-0.7743085365359469	0.0	0.6716279791044298	-0.725437784759279	0.0	0.6893776535326072	-0.6920362478456321	0.0	0.697920036338362	-0.7078020605284882	0.0	0.6819177581995887	-0.7227648947784072	0.0	0.3740431638262846	-0.7909515939291565	0.0	0.37435953378310205	-0.7185324303765233	0.0	0.4034552292358198	-0.7523625670978847	0.0	0.354845790034861	-0.8015741282240497	0.0	0.34868129311585544	-0.8552053216485879	0.0	0.3978097457234649	-0.888238513191621	0.0	0.39227419814830333	-0.7910789000245989	0.0	0.420841493335344	-0.8187047786955286	0.0	0.46276815231606133	-0.8241153793385606	0.0
33	1.1104761904761904	0.4897673381985624	-0.8320757028663059	0.0	0.4859482910347596	-0.8444923215788448	0.0	0.5166462881114778	-0.7344898161716137	0.0	0.6140211126404286	-0.6779125851219494	0.0	0.6394881407836621	-0.6321122432756142	0.0	0.6439795174968825	-0.6386151943605561	0.0	0.6256024982871674	-0.6786319580160362	0.0	0.4986345113353873	-0.8284950803583793	0.0	0.5692705166020205	-0.7539134607957607	0.0	0.6644038583034662	-0.6992315940523082	0.0	0.6822808190632633	-0.6684317658972728	0.0	0.6909648185170213	-0.6841458401263646	0.0	0.6732891239938005	-0.6962584045188864	0.0	0.3712380818190727	-0.7860965713866778	0.0	0.3667881686497354	-0.7123558960797217	0.0	0.39832321020368705	-0.7449836782062376	0.0	0.35286213505421254	-0.7983590562193135	0.0	0.35322200808500653	-0.847557861792039	0.0	0.4029635151384984	-0.877467820202777	0.0	0.39029475652122336	-0.7823267744203716	0.0	0.4218484868871599	-0.8047810986932393	0.0	0.46800698113818684	-0.8091756437834062	0.0
34	1.1441269841269839	0.4925051114841293	-0.8147345948986651	0.0	0.4902732592320643	-0.8282413744635205	0.0	0.514379029286223	-0.7163290574667533	0.0	0.6075287783895946	-0.6510060430839814	0.0	0.6255474173733478	-0.6041945190042451	0.0	0.6310950503686887	-0.6091835641621873	0.0	0.6177217524914954	-0.651582794554506	0.0	0.49935709142825285	-0.8092341533956038	0.0	0.5699956975402088	-0.7326112941682328	0.0	0.6629035720310279	-0.6733660786773541	0.0	0.6806635327970506	-0.646142399596234	0.0	0.690504569410033	-0.6610189359148504	0.0	0.6706832842005392	-0.6704273389651583	0.0	0.3708431373736138	-0.7774508791167669	0.0	0.3618935095319236	-0.7033632949198467	0.0	0.39499884879354086	-0.7346154553692974	0.0	0.3527536541105458	-0.791713298009878	0.0	0.3579260288887111	-0.8371399493002477	0.0	0.4078829616273519	-0.8643823505532113	0.0	0.3905923873894877	-0.7707491049435382	0.0	0.423088532361335	-0.790069374472993	0.0	0.4738835989973428	-0.792961090269262	0.0
35	1.1777777777777776	0.4950780253792572	-0.7974755762838476	0.0	0.4929928531433537	-0.8105210344869911	0.0	0.5098005431092777	-0.6959551357132843	0.0	0.5988722604519889	-0.6221733480312538	0.0	0.6082746808618055	-0.5728064614313297	0.0	0.6153557218489082	-0.5762758866362551	0.0	0.6076214563853521	-0.6228796633554283	0.0	0.5017322559814477	-0.7905118198314951	0.0	0.5763865353637375	-0.7125174979628558	0.0	0.6676209955429573	-0.6505566750232621	0.0	0.6846591438346014	-0.6270090350415701	0.0	0.69658846095107	-0.6410363449494755	0.0	0.6745599243493654	-0.6477661901229926	0.0	0.37189644151106305	-0.766444291862892	0.0	0.3589967628551817	-0.6931873061212955	0.0	0.39291754222585823	-0.7230964629162141	0.0	0.35389760698683687	-0.7824892636111649	0.0	0.3625767386036766	-0.8257064909983894	0.0	0.41308816261858905	-0.8501571280565297	0.0	0.39216644024303593	-0.7582302307410567	0.0	0.4243458853409349	-0.7768403787312794	0.0	0.4792768176828983	-0.7768647026332038	0.0
36	1.2114285714285713	0.49706160636253777	-0.7820734545903723	0.0	0.494049577944113	-0.7934265650316487	0.0	0.5041760296603363	-0.6755922081364257	0.0	0.5890576922563541	-0.5944439085513563	0.0	0.5900221506006241	-0.541737163019573	0.0	0.5993038648083058	-0.5439999785883911	0.0	0.5968253262293414	-0.5953600924473398	0.0	0.5051410170880711	-0.774093635747594	0.0	0.5857082962063686	-0.6944930493138716	0.0	0.6759516621494255	-0.6317119395060046	0.0	0.6912445629854423	-0.610398709289072	0.0	0.7055506554045935	-0.6239039407880734	0.0	0.6824075233039917	-0.6291555062701258	0.0	0.37350295480740614	-0.7547734100149814	0.0	0.35753981051700645	-0.6833234173627545	0.0	0.3917556519412937	-0.7120099330436248	0.0	0.35570154123157766	-0.7717888210061329	0.0	0.3671335176243628	-0.8147213203580074	0.0	0.4190200679922991	-0.8356285702211841	0.0	0.39419323024549857	-0.7463671296267657	0.0	0.4256133910718579	-0.7662618205722049	0.0	0.4833875539116207	-0.7621426353309324	0.0
